<svg xmlns="http://www.w3.org/2000/svg" width="175" height="57" fill="none" viewBox="0 0 175 57">
    <path fill="#E8E8E8" fill-rule="evenodd" d="M161.064 0H13.944c-.537 0-1.066 0-1.601.003-.448.003-.892.011-1.344.018-.982.011-1.962.095-2.93.25-.968.16-1.905.46-2.78.89A9.408 9.408 0 0 0 2.92 2.836a8.9 8.9 0 0 0-1.723 2.3 9.179 9.179 0 0 0-.914 2.702c-.163.94-.25 1.89-.262 2.842-.013.435-.015.872-.022 1.307v32.809c.007.44.009.868.022 1.308.012.953.1 1.903.262 2.842.161.941.47 1.852.914 2.703a8.83 8.83 0 0 0 1.723 2.291 9.171 9.171 0 0 0 2.367 1.673c.876.432 1.813.734 2.78.896.97.154 1.949.238 2.93.25.453.01.897.016 1.345.016.535.003 1.065.003 1.6.003h147.121c.526 0 1.06 0 1.585-.003.446 0 .903-.006 1.349-.015.98-.012 1.957-.096 2.924-.251a10.159 10.159 0 0 0 2.791-.896 9.179 9.179 0 0 0 2.365-1.673 9.114 9.114 0 0 0 1.728-2.291 9.155 9.155 0 0 0 .905-2.703c.164-.94.254-1.89.272-2.842.006-.44.006-.867.006-1.308.011-.516.011-1.029.011-1.553V13.536c0-.52 0-1.035-.011-1.55 0-.435 0-.872-.006-1.307a18.559 18.559 0 0 0-.272-2.842 9.177 9.177 0 0 0-.905-2.701 9.323 9.323 0 0 0-4.093-3.974c-.879-.43-1.82-.73-2.791-.89a19.62 19.62 0 0 0-2.924-.251c-.446-.007-.903-.015-1.349-.018C162.124 0 161.59 0 161.064 0z" clip-rule="evenodd"/>
    <path fill="#fff" fill-rule="evenodd" d="M12.35 55.535c-.445 0-.88-.005-1.322-.015a19.083 19.083 0 0 1-2.734-.232 8.786 8.786 0 0 1-2.423-.777 7.898 7.898 0 0 1-2.043-1.443 7.568 7.568 0 0 1-1.492-1.982 7.956 7.956 0 0 1-.794-2.353c-.15-.88-.232-1.77-.244-2.661-.01-.3-.021-1.296-.021-1.296v-32.79s.013-.98.021-1.27c.011-.89.092-1.778.242-2.656.14-.822.408-1.617.795-2.36A7.64 7.64 0 0 1 3.82 3.716a8.133 8.133 0 0 1 2.05-1.451 8.697 8.697 0 0 1 2.418-.772 18.95 18.95 0 0 1 2.743-.233l1.32-.017h150.291l1.336.018c.91.01 1.819.087 2.717.23.85.14 1.674.402 2.444.778a8.062 8.062 0 0 1 3.532 3.435c.381.737.645 1.526.782 2.34.152.886.237 1.781.255 2.68.004.401.004.833.004 1.263.011.532.011 1.038.011 1.55v29.706c0 .515 0 1.019-.011 1.526 0 .462 0 .884-.006 1.32-.017.881-.1 1.76-.25 2.63a7.962 7.962 0 0 1-.79 2.37 7.773 7.773 0 0 1-1.485 1.968 7.9 7.9 0 0 1-2.046 1.451 8.753 8.753 0 0 1-2.44.78 18.86 18.86 0 0 1-2.733.232c-.429.01-.877.015-1.313.015l-1.585.003-148.714-.003z" clip-rule="evenodd"/>
    <path fill="#000" fill-rule="evenodd" d="M36.223 28.815c.032-2.408 1.332-4.632 3.446-5.894-1.34-1.856-3.503-2.991-5.837-3.062-2.456-.25-4.836 1.426-6.088 1.426-1.275 0-3.202-1.401-5.277-1.36-2.73.086-5.213 1.555-6.541 3.872-2.829 4.753-.719 11.738 1.99 15.58 1.356 1.88 2.94 3.982 5.013 3.908 2.029-.082 2.786-1.256 5.235-1.256 2.425 0 3.136 1.256 5.251 1.208 2.177-.034 3.548-1.89 4.856-3.788a15.375 15.375 0 0 0 2.22-4.39c-2.584-1.061-4.265-3.52-4.268-6.244zM32.228 17.333a6.782 6.782 0 0 0 1.63-4.955 7.324 7.324 0 0 0-4.691 2.356 6.46 6.46 0 0 0-1.673 4.771 6.067 6.067 0 0 0 4.734-2.172z" clip-rule="evenodd"/>
    <path fill="#000" d="M61.864 38.522h-6.922l-1.663 4.764h-2.932l6.557-17.626h3.046l6.557 17.626h-2.982l-1.66-4.764zm-6.205-2.198h5.487l-2.705-7.732h-.076l-2.706 7.732zM80.667 36.862c0 3.993-2.202 6.559-5.526 6.559-1.717.087-3.335-.786-4.165-2.248h-.063v6.365h-2.718V30.436h2.63v2.137h.05c.868-1.453 2.487-2.326 4.216-2.272 3.36 0 5.576 2.578 5.576 6.56zm-2.793 0c0-2.602-1.386-4.313-3.5-4.313-2.076 0-3.473 1.747-3.473 4.313 0 2.59 1.397 4.323 3.474 4.323 2.113 0 3.499-1.698 3.499-4.323zM95.24 36.862c0 3.993-2.202 6.559-5.526 6.559-1.717.087-3.335-.786-4.166-2.248h-.063v6.365h-2.717V30.436h2.63v2.137h.05c.867-1.453 2.487-2.326 4.216-2.272 3.36 0 5.576 2.578 5.576 6.56zm-2.794 0c0-2.602-1.385-4.313-3.499-4.313-2.076 0-3.473 1.747-3.473 4.313 0 2.59 1.397 4.323 3.473 4.323 2.114 0 3.5-1.698 3.5-4.323z"/>
    <path fill="#000" fill-rule="evenodd" d="M104.871 38.376c.202 1.748 1.951 2.895 4.342 2.895 2.291 0 3.939-1.147 3.939-2.723 0-1.369-.994-2.188-3.348-2.75l-2.353-.55c-3.335-.781-4.883-2.295-4.883-4.751 0-3.041 2.73-5.13 6.608-5.13 3.837 0 6.468 2.089 6.556 5.13h-2.743c-.164-1.76-1.662-2.821-3.852-2.821-2.189 0-3.687 1.074-3.687 2.638 0 1.246.957 1.98 3.297 2.54l2.001.477c3.726.856 5.274 2.308 5.274 4.887 0 3.297-2.706 5.363-7.011 5.363-4.027 0-6.746-2.017-6.922-5.205h2.782zM121.888 27.394v3.042h2.517v2.089h-2.517v7.084c0 1.1.504 1.614 1.611 1.614.298-.005.597-.026.894-.062v2.077a7.698 7.698 0 0 1-1.51.122c-2.681 0-3.726-.977-3.726-3.47v-7.365h-1.925v-2.09h1.925v-3.04h2.731z" clip-rule="evenodd"/>
    <path fill="#000" d="M125.864 36.862c0-4.044 2.453-6.585 6.279-6.585 3.839 0 6.281 2.541 6.281 6.585 0 4.054-2.429 6.584-6.281 6.584-3.85 0-6.279-2.53-6.279-6.584zm9.791 0c0-2.774-1.31-4.411-3.512-4.411s-3.51 1.65-3.51 4.41c0 2.785 1.308 4.41 3.51 4.41s3.512-1.625 3.512-4.41z"/>
    <path fill="#000" fill-rule="evenodd" d="M140.665 30.436h2.592v2.187h.063c.362-1.408 1.691-2.377 3.185-2.322.313-.001.625.032.931.099v2.467a3.905 3.905 0 0 0-1.221-.16 2.782 2.782 0 0 0-2.117.846 2.609 2.609 0 0 0-.715 2.111v7.622h-2.718v-12.85z" clip-rule="evenodd"/>
    <path fill="#000" d="M159.967 39.512c-.366 2.333-2.707 3.934-5.702 3.934-3.851 0-6.242-2.505-6.242-6.523 0-4.031 2.403-6.646 6.128-6.646 3.663 0 5.967 2.443 5.967 6.34v.903h-9.352v.16a3.288 3.288 0 0 0 .935 2.6 3.5 3.5 0 0 0 2.627 1.04c1.319.12 2.563-.616 3.058-1.808h2.581zm-9.188-3.836h6.62c.049-.86-.273-1.7-.89-2.319a3.233 3.233 0 0 0-2.358-.942 3.404 3.404 0 0 0-2.386.949 3.208 3.208 0 0 0-.986 2.313zM52.346 22.678v-8.963h3.512c1.641 0 2.628.857 2.628 2.236 0 .933-.64 1.739-1.531 1.926v.105c1.116.054 1.988 1.01 1.967 2.155 0 1.578-1.12 2.54-2.985 2.54h-3.591zm1.357-5.168h1.61c1.2 0 1.823-.453 1.823-1.304 0-.827-.588-1.31-1.593-1.31h-1.84v2.614zm1.962 3.987c1.222 0 1.87-.51 1.87-1.459 0-.938-.672-1.429-1.949-1.429h-1.883v2.888h1.962zM60.316 20.765c0-1.218.884-1.92 2.453-2.02l1.786-.105v-.584c0-.714-.46-1.117-1.35-1.117-.727 0-1.23.273-1.374.751h-1.26c.133-1.161 1.198-1.907 2.694-1.907 1.653 0 2.585.845 2.585 2.273v4.621h-1.252v-.95h-.103a2.204 2.204 0 0 1-1.98 1.062 1.96 1.96 0 0 1-1.538-.512 2.067 2.067 0 0 1-.66-1.512zm4.239-.578v-.566l-1.61.106c-.908.062-1.32.38-1.32.975 0 .61.515.963 1.222.963.42.044.838-.089 1.16-.368.322-.278.52-.68.548-1.11zM67.718 13.913a.86.86 0 0 1 .52-.834.934.934 0 0 1 1.001.153.84.84 0 0 1 .22.948.904.904 0 0 1-.838.547.881.881 0 0 1-.633-.223.806.806 0 0 1-.27-.59zm.207 2h1.39v6.764h-1.39v-6.764z"/>
    <path fill="#000" fill-rule="evenodd" d="M73.674 20.28l-1.442 2.398h-1.428l2.186-3.367-2.205-3.397h1.52l1.417 2.385h.103l1.405-2.385h1.447l-2.174 3.342 2.198 3.422h-1.494L73.77 20.28h-.097z" clip-rule="evenodd"/>
    <path fill="#000" d="M77.85 20.765c0-1.218.883-1.92 2.452-2.02l1.786-.105v-.584c0-.714-.46-1.117-1.35-1.117-.726 0-1.23.273-1.374.751h-1.26c.133-1.161 1.198-1.907 2.694-1.907 1.653 0 2.586.845 2.586 2.273v4.621H82.13v-.95h-.103a2.204 2.204 0 0 1-1.98 1.062 1.96 1.96 0 0 1-1.537-.512 2.066 2.066 0 0 1-.661-1.512zm4.238-.578v-.566l-1.61.106c-.908.062-1.32.38-1.32.975 0 .61.515.963 1.223.963.419.044.837-.089 1.159-.368.322-.278.52-.68.548-1.11z"/>
    <path fill="#000" fill-rule="evenodd" d="M85.421 15.914h1.253v1.037h.097a1.785 1.785 0 0 1 1.78-1.15c.196-.002.39.016.581.056v1.317a3.483 3.483 0 0 0-.726-.08 1.52 1.52 0 0 0-1.185.412c-.32.303-.502.73-.498 1.178v3.993H85.42v-6.763zM94.147 15.914H95.4v1.075h.098a1.968 1.968 0 0 1 1.967-1.205c.65-.05 1.287.205 1.731.695.444.49.647 1.16.552 1.82v4.379h-1.302v-4.043c0-1.087-.46-1.628-1.422-1.628a1.493 1.493 0 0 0-1.172.486c-.302.33-.45.778-.403 1.228v3.957h-1.302v-6.764z" clip-rule="evenodd"/>
    <path fill="#000" d="M101.385 20.765c0-1.218.884-1.92 2.452-2.02l1.786-.105v-.584c0-.714-.46-1.117-1.35-1.117-.726 0-1.229.273-1.374.751h-1.26c.133-1.161 1.199-1.907 2.695-1.907 1.653 0 2.585.845 2.585 2.273v4.621h-1.253v-.95h-.103a2.203 2.203 0 0 1-1.98 1.062 1.96 1.96 0 0 1-1.537-.512 2.065 2.065 0 0 1-.661-1.512zm4.238-.578v-.566l-1.61.106c-.908.062-1.32.38-1.32.975 0 .61.515.963 1.223.963.419.044.837-.089 1.159-.368.322-.278.52-.68.548-1.11z"/>
</svg>
