<svg xmlns="http://www.w3.org/2000/svg" width="176" height="57" fill="none" viewBox="0 0 176 57">
    <path fill="#fff" fill-rule="evenodd" d="M169.481 54.23H6.519C2.933 54.23 0 51.18 0 47.45V6.779C0 3.05 2.933 0 6.519 0H169.48C173.067 0 176 3.05 176 6.779V47.45c0 3.728-2.933 6.779-6.519 6.779z" clip-rule="evenodd"/>
    <path fill="#E8E8E8" fill-rule="evenodd" d="M169.481 0H6.519C2.933 0 0 3.203 0 7.118v42.706c0 3.914 2.933 7.117 6.519 7.117H169.48c3.586 0 6.519-3.203 6.519-7.117V7.117C176 3.203 173.067 0 169.481 0zm0 1.139c3.02 0 5.476 2.682 5.476 5.979v42.706c0 3.296-2.456 5.978-5.476 5.978H6.519c-3.02 0-5.476-2.682-5.476-5.978V7.117c0-3.297 2.456-5.98 5.476-5.98H169.48z" clip-rule="evenodd"/>
    <path fill="#0A0B09" fill-rule="evenodd" d="M139.413 40.672h2.432V23.724h-2.432v16.948zm21.911-10.843l-2.788 7.348h-.084l-2.894-7.348h-2.621l4.34 10.27-2.474 5.713h2.538l6.688-15.983h-2.705zm-13.796 8.918c-.798 0-1.908-.414-1.908-1.439 0-1.308 1.384-1.81 2.578-1.81 1.071 0 1.573.24 2.223.567-.189 1.57-1.489 2.682-2.893 2.682zm.294-9.288c-1.762 0-3.586.806-4.34 2.595l2.159.936c.461-.936 1.32-1.243 2.222-1.243 1.258 0 2.537.785 2.558 2.182v.173c-.44-.262-1.383-.653-2.537-.653-2.327 0-4.697 1.33-4.697 3.815 0 2.268 1.909 3.73 4.047 3.73 1.636 0 2.537-.764 3.104-1.659h.083v1.309h2.348v-6.497c0-3.01-2.159-4.688-4.947-4.688zm-15.035 2.433h-3.46v-5.81h3.46c1.819 0 2.852 1.567 2.852 2.905 0 1.314-1.033 2.905-2.852 2.905zm-.062-8.168h-5.829v16.948h2.431v-6.42h3.398c2.696 0 5.346-2.032 5.346-5.265 0-3.234-2.65-5.263-5.346-5.263zM100.939 38.75c-1.68 0-3.087-1.463-3.087-3.472 0-2.031 1.407-3.517 3.087-3.517 1.66 0 2.961 1.486 2.961 3.517 0 2.009-1.301 3.472-2.961 3.472zm2.793-7.972h-.084c-.546-.677-1.595-1.288-2.919-1.288-2.773 0-5.314 2.532-5.314 5.788 0 3.232 2.541 5.744 5.314 5.744 1.324 0 2.373-.612 2.919-1.311h.084v.83c0 2.207-1.133 3.386-2.961 3.386-1.491 0-2.416-1.114-2.794-2.054l-2.12.918c.608 1.53 2.226 3.407 4.914 3.407 2.856 0 5.272-1.748 5.272-6.006V29.838h-2.311v.94zm3.992 9.894h2.436v-16.95h-2.436v16.95zm6.027-5.591c-.063-2.228 1.659-3.364 2.898-3.364.967 0 1.786.502 2.058 1.223l-4.956 2.14zm7.561-1.923c-.461-1.288-1.869-3.668-4.747-3.668-2.856 0-5.229 2.336-5.229 5.766 0 3.232 2.352 5.766 5.502 5.766 2.542 0 4.013-1.616 4.621-2.556l-1.89-1.31c-.63.96-1.491 1.594-2.731 1.594-1.239 0-2.121-.59-2.688-1.747l7.414-3.188-.252-.657zM62.244 31.26v2.446h5.628c-.168 1.376-.609 2.38-1.28 3.08-.82.852-2.102 1.79-4.348 1.79-3.465 0-6.176-2.904-6.176-6.508 0-3.605 2.71-6.509 6.176-6.509 1.87 0 3.234.765 4.242 1.748l1.66-1.726c-1.408-1.398-3.276-2.469-5.902-2.469-4.747 0-8.737 4.02-8.737 8.956s3.99 8.955 8.737 8.955c2.562 0 4.494-.873 6.006-2.512 1.554-1.616 2.038-3.887 2.038-5.723 0-.568-.042-1.091-.127-1.528h-7.917zm14.444 7.49c-1.68 0-3.13-1.44-3.13-3.493 0-2.076 1.45-3.495 3.13-3.495 1.679 0 3.129 1.42 3.129 3.495 0 2.052-1.45 3.494-3.13 3.494zm0-9.26c-3.068 0-5.567 2.425-5.567 5.767 0 3.319 2.5 5.766 5.567 5.766 3.066 0 5.565-2.447 5.565-5.766 0-3.342-2.499-5.766-5.565-5.766zm12.141 9.26c-1.68 0-3.13-1.44-3.13-3.493 0-2.076 1.45-3.495 3.13-3.495s3.129 1.42 3.129 3.495c0 2.052-1.448 3.494-3.129 3.494zm0-9.26c-3.066 0-5.565 2.425-5.565 5.767 0 3.319 2.499 5.766 5.565 5.766 3.066 0 5.566-2.447 5.566-5.766 0-3.342-2.5-5.766-5.566-5.766z" clip-rule="evenodd"/>
    <path fill="#000" fill-rule="evenodd" d="M13.604 10.23c-.38.418-.602 1.065-.602 1.904v29.96c0 .838.223 1.485.602 1.903l.097.097 16.138-16.783v-.395L13.701 10.133l-.097.098z" clip-rule="evenodd"/>
    <path fill="#fff" fill-rule="evenodd" d="M13.78 11.085c-.107.267-.175.614-.175 1.049v29.96c0 .434.068.78.175 1.048l15.413-16.028-15.414-16.029zm-.448-.466c-.212.393-.33.903-.33 1.515v29.96c0 .611.118 1.12.33 1.514.078.146.17.276.272.389l.097.097 16.138-16.783v-.395L13.701 10.133l-.097.098a1.948 1.948 0 0 0-.272.388z" clip-rule="evenodd"/>
    <mask id="a" width="15" height="12" x="29" y="21" maskUnits="userSpaceOnUse">
        <path fill="#fff" d="M35.217 32.909l-5.378-5.597v-.396l5.38-5.595 6.496 3.837c1.82 1.076 1.82 2.836 0 3.911l-6.374 3.767-.124.073z"/>
    </mask>
    <g fill-rule="evenodd" clip-rule="evenodd" mask="url(#a)">
        <path fill="#000" d="M35.217 32.909l-5.378-5.597v-.396l5.38-5.595 6.496 3.837c1.82 1.076 1.82 2.836 0 3.911l-6.374 3.767-.124.073z"/>
        <path fill="#fff" d="M41.715 29.07c1.82-1.076 1.82-2.835 0-3.912l-6.495-3.837-5.38 5.595v.396l5.377 5.597 6.498-3.84zm-6.394 3.077l6.087-3.597c.795-.47 1.069-1.01 1.069-1.436 0-.426-.274-.966-1.069-1.437l-6.084-3.594-4.838 5.032 4.835 5.032z"/>
    </g>
    <mask id="b" width="23" height="18" x="13" y="27" maskUnits="userSpaceOnUse">
        <path fill="#fff" d="M35.34 32.836l-5.5-5.721-16.236 16.883c.601.66 1.592.741 2.708.082L35.34 32.836z"/>
    </mask>
    <g fill-rule="evenodd" clip-rule="evenodd" mask="url(#b)">
        <path fill="#000" d="M35.34 32.836l-5.5-5.721-16.236 16.883c.601.66 1.592.741 2.708.082L35.34 32.836z"/>
        <path fill="#fff" d="M29.84 27.115L13.603 43.998a1.6 1.6 0 0 0 .484.367c.589.29 1.37.22 2.224-.285L35.34 32.836l-5.502-5.721zm0 .87L14.542 43.892c.359.098.845.033 1.462-.33l18.372-10.857-4.538-4.72z"/>
    </g>
    <mask id="c" width="23" height="19" x="13" y="9" maskUnits="userSpaceOnUse">
        <path fill="#fff" d="M35.34 21.394L16.313 10.15c-1.116-.66-2.107-.578-2.708.082L29.84 27.115l5.502-5.72z"/>
    </mask>
    <g fill-rule="evenodd" clip-rule="evenodd" mask="url(#c)">
        <path fill="#000" d="M35.34 21.394L16.313 10.15c-1.116-.66-2.107-.578-2.708.082L29.84 27.115l5.502-5.72z"/>
        <path fill="#fff" d="M34.377 21.526L16.005 10.669c-.617-.364-1.103-.429-1.462-.33l15.296 15.906 4.538-4.72zM16.312 10.15c-.854-.505-1.635-.575-2.224-.285a1.596 1.596 0 0 0-.484.367L29.84 27.115l5.502-5.72L16.31 10.15z"/>
    </g>
    <path fill="#0A0B09" fill-rule="evenodd" d="M54.897 16.625h1.388c.902 0 1.618-.268 2.146-.808.53-.537.793-1.29.793-2.26 0-.961-.264-1.714-.793-2.256-.528-.54-1.244-.812-2.146-.812h-1.388v6.136zm-1.004 1V9.49h2.392c1.202 0 2.163.377 2.885 1.13.72.754 1.08 1.732 1.08 2.937 0 1.204-.36 2.183-1.08 2.937-.722.753-1.683 1.13-2.885 1.13h-2.392zM61.66 17.624h1.005V9.49H61.66v8.134zM66.664 17.807c-.569 0-1.124-.193-1.666-.58-.544-.386-.899-.928-1.066-1.625l.918-.385c.11.446.333.823.672 1.13.34.306.72.459 1.142.459.436 0 .81-.118 1.12-.357.308-.238.464-.562.464-.972 0-.454-.156-.803-.465-1.05-.308-.247-.799-.475-1.469-.688-.692-.226-1.216-.52-1.573-.88-.356-.36-.536-.82-.536-1.381 0-.583.223-1.09.667-1.521.445-.433 1.024-.648 1.737-.648.663 0 1.202.172 1.617.516.414.346.684.722.808 1.131l-.917.397c-.066-.256-.228-.496-.486-.716-.258-.218-.592-.328-1.001-.328-.386 0-.715.112-.987.335-.274.224-.41.502-.41.834 0 .304.126.559.376.767.253.21.622.396 1.11.563.385.129.707.254.967.376.258.12.52.282.786.482s.465.45.6.75c.135.3.203.645.203 1.038 0 .395-.078.747-.235 1.058-.156.31-.365.556-.623.739-.26.18-.537.318-.836.413a3.02 3.02 0 0 1-.917.143zM71.722 13.33h1.683c.423 0 .762-.147 1.016-.443.254-.295.382-.62.382-.977a1.46 1.46 0 0 0-.382-.976c-.254-.297-.593-.445-1.016-.445h-1.683v2.84zm0 4.294h-1.005V9.49h2.666c.662 0 1.236.229 1.72.687.485.458.727 1.036.727 1.733 0 .697-.242 1.274-.727 1.732a2.416 2.416 0 0 1-1.72.688h-1.66v3.294zM78.5 15.892c.579.61 1.287.914 2.125.914.837 0 1.546-.304 2.125-.914.579-.61.87-1.388.87-2.334 0-.947-.291-1.725-.87-2.335a2.817 2.817 0 0 0-2.125-.914c-.838 0-1.546.304-2.125.914-.578.61-.868 1.388-.868 2.335 0 .946.29 1.724.868 2.334zm4.993.682c-.769.822-1.725 1.233-2.868 1.233-1.143 0-2.1-.411-2.867-1.233-.769-.821-1.152-1.827-1.152-3.016 0-1.19.383-2.195 1.152-3.017.767-.821 1.724-1.232 2.867-1.232 1.137 0 2.09.412 2.863 1.238.772.825 1.158 1.829 1.158 3.01 0 1.19-.385 2.196-1.153 3.017zM86.056 17.624V9.49h1.223l3.802 6.327h.043l-.043-1.567V9.49h1.006v8.134h-1.05L87.06 10.99h-.043l.043 1.569v5.066h-1.004zM94.864 8.854h-.917l.597-1.455h1.146l-.826 1.455zm-.986 8.77h1.056V9.49h-1.055v8.134zM98.608 17.624L95.855 9.49h1.114l2.141 6.6h.044l2.23-6.6h1.113l-2.84 8.134h-1.049zM108.2 10.489h-3.562v2.58h3.212v.976h-3.212v2.58h3.562v1h-4.567V9.49h4.567v.999zM109.773 17.624V9.49h1.005v7.135h3.386v1h-4.391zM118.054 17.624V9.49h1.223l3.802 6.327h.043l-.043-1.567V9.49h1.006v8.134h-1.049l-3.978-6.635h-.043l.043 1.569v5.066h-1.004zM127.281 15.892c.579.61 1.286.914 2.125.914.837 0 1.546-.304 2.125-.914.579-.61.869-1.388.869-2.334 0-.947-.29-1.725-.869-2.335a2.817 2.817 0 0 0-2.125-.914c-.839 0-1.546.304-2.125.914-.578.61-.869 1.388-.869 2.335 0 .946.291 1.724.869 2.334zm4.993.682c-.769.822-1.725 1.233-2.868 1.233-1.144 0-2.101-.411-2.867-1.233-.769-.821-1.153-1.827-1.153-3.016 0-1.19.384-2.195 1.153-3.017.766-.821 1.723-1.232 2.867-1.232 1.137 0 2.09.412 2.863 1.238.771.825 1.157 1.829 1.157 3.01 0 1.19-.384 2.196-1.152 3.017z" clip-rule="evenodd"/>
</svg>
